<mxfile host="app.diagrams.net" modified="2024-01-16T13:01:40.811Z" agent="Mozilla/5.0 (X11; Linux x86_64; rv:121.0) Gecko/20100101 Firefox/121.0" etag="1J8cZwV4JLg5JO24cHab" version="22.1.18" type="device">
  <diagram name="Page-1" id="e7e014a7-5840-1c2e-5031-d8a46d1fe8dd">
    <mxGraphModel dx="1434" dy="741" grid="1" gridSize="10" guides="1" tooltips="1" connect="1" arrows="1" fold="1" page="1" pageScale="1" pageWidth="1169" pageHeight="826" background="none" math="0" shadow="0">
      <root>
        <mxCell id="0" />
        <mxCell id="1" parent="0" />
        <mxCell id="2" value="Клиент" style="swimlane;whiteSpace=wrap" parent="1" vertex="1">
          <mxGeometry x="164.5" y="128" width="280" height="570" as="geometry" />
        </mxCell>
        <mxCell id="4rBxTCoZNJ6-4deoBNhW-68" style="edgeStyle=orthogonalEdgeStyle;rounded=0;orthogonalLoop=1;jettySize=auto;html=1;exitX=0.5;exitY=1;exitDx=0;exitDy=0;entryX=0.5;entryY=0;entryDx=0;entryDy=0;" parent="2" source="4rBxTCoZNJ6-4deoBNhW-44" target="4rBxTCoZNJ6-4deoBNhW-67" edge="1">
          <mxGeometry relative="1" as="geometry" />
        </mxCell>
        <mxCell id="4rBxTCoZNJ6-4deoBNhW-44" value="Открыть мадальное окно задачи" style="html=1;whiteSpace=wrap;" parent="2" vertex="1">
          <mxGeometry x="95.5" y="162" width="110" height="68" as="geometry" />
        </mxCell>
        <mxCell id="4rBxTCoZNJ6-4deoBNhW-67" value="Удалить задачу" style="html=1;whiteSpace=wrap;" parent="2" vertex="1">
          <mxGeometry x="95.5" y="262" width="110" height="68" as="geometry" />
        </mxCell>
        <mxCell id="3" value="Приложение" style="swimlane;whiteSpace=wrap" parent="1" vertex="1">
          <mxGeometry x="445" y="128" width="280" height="570" as="geometry" />
        </mxCell>
        <mxCell id="4rBxTCoZNJ6-4deoBNhW-41" value="" style="ellipse;html=1;shape=startState;fillColor=#000000;strokeColor=#ff0000;" parent="3" vertex="1">
          <mxGeometry x="125.5" y="42" width="30" height="30" as="geometry" />
        </mxCell>
        <mxCell id="4rBxTCoZNJ6-4deoBNhW-42" value="" style="edgeStyle=orthogonalEdgeStyle;html=1;verticalAlign=bottom;endArrow=open;endSize=8;strokeColor=#ff0000;rounded=0;entryX=0.5;entryY=0;entryDx=0;entryDy=0;" parent="3" source="4rBxTCoZNJ6-4deoBNhW-41" target="4rBxTCoZNJ6-4deoBNhW-43" edge="1">
          <mxGeometry relative="1" as="geometry">
            <mxPoint x="140.5" y="112" as="targetPoint" />
          </mxGeometry>
        </mxCell>
        <mxCell id="4rBxTCoZNJ6-4deoBNhW-43" value="Формирования представления удаления задачи" style="html=1;whiteSpace=wrap;" parent="3" vertex="1">
          <mxGeometry x="85.5" y="112" width="110" height="50" as="geometry" />
        </mxCell>
        <mxCell id="4rBxTCoZNJ6-4deoBNhW-85" style="edgeStyle=orthogonalEdgeStyle;rounded=0;orthogonalLoop=1;jettySize=auto;html=1;exitX=0;exitY=0.5;exitDx=0;exitDy=0;entryX=0;entryY=0.5;entryDx=0;entryDy=0;strokeColor=#FF0000;" parent="3" source="4rBxTCoZNJ6-4deoBNhW-76" target="4rBxTCoZNJ6-4deoBNhW-84" edge="1">
          <mxGeometry relative="1" as="geometry">
            <Array as="points">
              <mxPoint x="35" y="341" />
              <mxPoint x="35" y="537" />
            </Array>
          </mxGeometry>
        </mxCell>
        <mxCell id="4rBxTCoZNJ6-4deoBNhW-105" value="нет" style="edgeLabel;html=1;align=center;verticalAlign=middle;resizable=0;points=[];" parent="4rBxTCoZNJ6-4deoBNhW-85" vertex="1" connectable="0">
          <mxGeometry x="-0.8749" relative="1" as="geometry">
            <mxPoint as="offset" />
          </mxGeometry>
        </mxCell>
        <mxCell id="4rBxTCoZNJ6-4deoBNhW-76" value="БД доступна?" style="rhombus;whiteSpace=wrap;html=1;fontColor=#000000;fillColor=#ffffc0;strokeColor=#ff0000;" parent="3" vertex="1">
          <mxGeometry x="85.5" y="312" width="97.5" height="58" as="geometry" />
        </mxCell>
        <mxCell id="4rBxTCoZNJ6-4deoBNhW-83" style="edgeStyle=orthogonalEdgeStyle;rounded=0;orthogonalLoop=1;jettySize=auto;html=1;exitX=0.5;exitY=1;exitDx=0;exitDy=0;entryX=0.5;entryY=0;entryDx=0;entryDy=0;" parent="3" source="4rBxTCoZNJ6-4deoBNhW-81" target="4rBxTCoZNJ6-4deoBNhW-82" edge="1">
          <mxGeometry relative="1" as="geometry" />
        </mxCell>
        <mxCell id="4rBxTCoZNJ6-4deoBNhW-81" value="Удалить запись о задаче" style="html=1;whiteSpace=wrap;" parent="3" vertex="1">
          <mxGeometry x="79.25" y="382" width="110" height="68" as="geometry" />
        </mxCell>
        <mxCell id="4rBxTCoZNJ6-4deoBNhW-82" value="" style="ellipse;html=1;shape=endState;fillColor=#000000;strokeColor=#ff0000;" parent="3" vertex="1">
          <mxGeometry x="119.25" y="472" width="30" height="30" as="geometry" />
        </mxCell>
        <mxCell id="4rBxTCoZNJ6-4deoBNhW-84" value="Отрисовать ошибку" style="html=1;whiteSpace=wrap;" parent="3" vertex="1">
          <mxGeometry x="79.25" y="512" width="110" height="50" as="geometry" />
        </mxCell>
        <mxCell id="4" value="Сервер БД" style="swimlane;whiteSpace=wrap" parent="1" vertex="1">
          <mxGeometry x="1004.5" y="128" width="280" height="570" as="geometry" />
        </mxCell>
        <mxCell id="4rBxTCoZNJ6-4deoBNhW-46" value="Запрос на удаление" style="html=1;whiteSpace=wrap;" parent="4" vertex="1">
          <mxGeometry x="75.5" y="307" width="110" height="68" as="geometry" />
        </mxCell>
        <mxCell id="4rBxTCoZNJ6-4deoBNhW-45" style="edgeStyle=orthogonalEdgeStyle;rounded=0;orthogonalLoop=1;jettySize=auto;html=1;exitX=0;exitY=0.5;exitDx=0;exitDy=0;entryX=0.5;entryY=0;entryDx=0;entryDy=0;" parent="1" source="4rBxTCoZNJ6-4deoBNhW-43" target="4rBxTCoZNJ6-4deoBNhW-44" edge="1">
          <mxGeometry relative="1" as="geometry">
            <Array as="points">
              <mxPoint x="315" y="265" />
            </Array>
          </mxGeometry>
        </mxCell>
        <mxCell id="4rBxTCoZNJ6-4deoBNhW-47" value="MIddleware" style="swimlane;whiteSpace=wrap" parent="1" vertex="1">
          <mxGeometry x="724.5" y="128" width="280" height="570" as="geometry" />
        </mxCell>
        <mxCell id="4rBxTCoZNJ6-4deoBNhW-53" style="rounded=0;orthogonalLoop=1;jettySize=auto;html=1;exitX=0.5;exitY=1;exitDx=0;exitDy=0;entryX=0.5;entryY=0;entryDx=0;entryDy=0;fillColor=#f8cecc;strokeColor=#FF0000;" parent="4rBxTCoZNJ6-4deoBNhW-47" source="4rBxTCoZNJ6-4deoBNhW-49" target="4rBxTCoZNJ6-4deoBNhW-52" edge="1">
          <mxGeometry relative="1" as="geometry" />
        </mxCell>
        <mxCell id="4rBxTCoZNJ6-4deoBNhW-56" value="да" style="edgeLabel;html=1;align=center;verticalAlign=middle;resizable=0;points=[];" parent="4rBxTCoZNJ6-4deoBNhW-53" vertex="1" connectable="0">
          <mxGeometry x="-0.6629" y="-1" relative="1" as="geometry">
            <mxPoint as="offset" />
          </mxGeometry>
        </mxCell>
        <mxCell id="4rBxTCoZNJ6-4deoBNhW-49" value="Пользователь авторизован?" style="rhombus;whiteSpace=wrap;html=1;fontColor=#000000;fillColor=#ffffc0;strokeColor=#ff0000;" parent="4rBxTCoZNJ6-4deoBNhW-47" vertex="1">
          <mxGeometry x="85" y="52" width="110" height="65" as="geometry" />
        </mxCell>
        <mxCell id="4rBxTCoZNJ6-4deoBNhW-52" value="Организация существует?" style="rhombus;whiteSpace=wrap;html=1;fontColor=#000000;fillColor=#ffffc0;strokeColor=#ff0000;" parent="4rBxTCoZNJ6-4deoBNhW-47" vertex="1">
          <mxGeometry x="85" y="142" width="110" height="65" as="geometry" />
        </mxCell>
        <mxCell id="4rBxTCoZNJ6-4deoBNhW-69" style="edgeStyle=orthogonalEdgeStyle;rounded=0;orthogonalLoop=1;jettySize=auto;html=1;exitX=1;exitY=0.5;exitDx=0;exitDy=0;entryX=0.5;entryY=0;entryDx=0;entryDy=0;" parent="1" source="4rBxTCoZNJ6-4deoBNhW-67" target="4rBxTCoZNJ6-4deoBNhW-49" edge="1">
          <mxGeometry relative="1" as="geometry">
            <Array as="points">
              <mxPoint x="760" y="424" />
              <mxPoint x="760" y="160" />
              <mxPoint x="865" y="160" />
            </Array>
          </mxGeometry>
        </mxCell>
        <mxCell id="4rBxTCoZNJ6-4deoBNhW-70" style="edgeStyle=orthogonalEdgeStyle;rounded=0;orthogonalLoop=1;jettySize=auto;html=1;exitX=0;exitY=0.5;exitDx=0;exitDy=0;entryX=1;entryY=0.5;entryDx=0;entryDy=0;strokeColor=#FF0000;" parent="1" source="4rBxTCoZNJ6-4deoBNhW-49" target="4rBxTCoZNJ6-4deoBNhW-44" edge="1">
          <mxGeometry relative="1" as="geometry">
            <Array as="points">
              <mxPoint x="740" y="213" />
              <mxPoint x="740" y="324" />
            </Array>
          </mxGeometry>
        </mxCell>
        <mxCell id="4rBxTCoZNJ6-4deoBNhW-71" value="нет" style="edgeLabel;html=1;align=center;verticalAlign=middle;resizable=0;points=[];" parent="4rBxTCoZNJ6-4deoBNhW-70" vertex="1" connectable="0">
          <mxGeometry x="-0.9074" y="-1" relative="1" as="geometry">
            <mxPoint x="1" as="offset" />
          </mxGeometry>
        </mxCell>
        <mxCell id="4rBxTCoZNJ6-4deoBNhW-72" style="rounded=0;orthogonalLoop=1;jettySize=auto;html=1;exitX=0;exitY=0.5;exitDx=0;exitDy=0;entryX=1;entryY=0.5;entryDx=0;entryDy=0;strokeColor=#FF0000;" parent="1" source="4rBxTCoZNJ6-4deoBNhW-52" target="4rBxTCoZNJ6-4deoBNhW-44" edge="1">
          <mxGeometry relative="1" as="geometry" />
        </mxCell>
        <mxCell id="4rBxTCoZNJ6-4deoBNhW-73" value="нет" style="edgeLabel;html=1;align=center;verticalAlign=middle;resizable=0;points=[];" parent="4rBxTCoZNJ6-4deoBNhW-72" vertex="1" connectable="0">
          <mxGeometry x="-0.8866" y="3" relative="1" as="geometry">
            <mxPoint x="1" y="1" as="offset" />
          </mxGeometry>
        </mxCell>
        <mxCell id="4rBxTCoZNJ6-4deoBNhW-86" value="" style="ellipse;html=1;shape=endState;fillColor=#000000;strokeColor=#ff0000;" parent="1" vertex="1">
          <mxGeometry x="560" y="710" width="30" height="30" as="geometry" />
        </mxCell>
        <mxCell id="4rBxTCoZNJ6-4deoBNhW-87" style="edgeStyle=orthogonalEdgeStyle;rounded=0;orthogonalLoop=1;jettySize=auto;html=1;exitX=0.5;exitY=1;exitDx=0;exitDy=0;entryX=0.5;entryY=-0.067;entryDx=0;entryDy=0;entryPerimeter=0;" parent="1" source="4rBxTCoZNJ6-4deoBNhW-84" target="4rBxTCoZNJ6-4deoBNhW-86" edge="1">
          <mxGeometry relative="1" as="geometry" />
        </mxCell>
        <mxCell id="vQ5HINFrBNe3jeaMfdUC-30" style="edgeStyle=orthogonalEdgeStyle;rounded=0;orthogonalLoop=1;jettySize=auto;html=1;exitX=1;exitY=0.5;exitDx=0;exitDy=0;entryX=0.5;entryY=0;entryDx=0;entryDy=0;strokeColor=#FF0000;" parent="1" source="4rBxTCoZNJ6-4deoBNhW-52" target="4rBxTCoZNJ6-4deoBNhW-76" edge="1">
          <mxGeometry relative="1" as="geometry" />
        </mxCell>
        <mxCell id="Q0B1QvE2dPGF4icnk5dD-4" value="&lt;div&gt;да&lt;/div&gt;" style="edgeLabel;html=1;align=center;verticalAlign=middle;resizable=0;points=[];" vertex="1" connectable="0" parent="vQ5HINFrBNe3jeaMfdUC-30">
          <mxGeometry x="-0.8513" y="2" relative="1" as="geometry">
            <mxPoint y="1" as="offset" />
          </mxGeometry>
        </mxCell>
        <mxCell id="Q0B1QvE2dPGF4icnk5dD-5" style="edgeStyle=orthogonalEdgeStyle;rounded=0;orthogonalLoop=1;jettySize=auto;html=1;exitX=1;exitY=0.5;exitDx=0;exitDy=0;entryX=0;entryY=0.5;entryDx=0;entryDy=0;" edge="1" parent="1" source="4rBxTCoZNJ6-4deoBNhW-76" target="4rBxTCoZNJ6-4deoBNhW-46">
          <mxGeometry relative="1" as="geometry" />
        </mxCell>
        <mxCell id="Q0B1QvE2dPGF4icnk5dD-7" value="да" style="edgeLabel;html=1;align=center;verticalAlign=middle;resizable=0;points=[];" vertex="1" connectable="0" parent="Q0B1QvE2dPGF4icnk5dD-5">
          <mxGeometry x="-0.9469" y="-1" relative="1" as="geometry">
            <mxPoint as="offset" />
          </mxGeometry>
        </mxCell>
        <mxCell id="Q0B1QvE2dPGF4icnk5dD-6" style="edgeStyle=orthogonalEdgeStyle;rounded=0;orthogonalLoop=1;jettySize=auto;html=1;exitX=0.5;exitY=1;exitDx=0;exitDy=0;entryX=1;entryY=0.5;entryDx=0;entryDy=0;" edge="1" parent="1" source="4rBxTCoZNJ6-4deoBNhW-46" target="4rBxTCoZNJ6-4deoBNhW-81">
          <mxGeometry relative="1" as="geometry" />
        </mxCell>
      </root>
    </mxGraphModel>
  </diagram>
</mxfile>
